<svg xmlns="http://www.w3.org/2000/svg" viewBox="0 0 1200 480" fill="none">
  <rect width="1200" height="480" fill="#0f1525"/>
  <rect x="80" y="80" width="1040" height="320" rx="16" stroke="#1e293b" stroke-width="2" fill="#111827"/>
  <rect x="120" y="120" width="200" height="12" rx="4" fill="#334155"/>
  <rect x="120" y="148" width="320" height="8" rx="3" fill="#1e293b"/>
  <rect x="120" y="168" width="280" height="8" rx="3" fill="#1e293b"/>
  <rect x="120" y="220" width="960" height="1" fill="#1e293b"/>
  <rect x="120" y="250" width="140" height="100" rx="8" fill="#1a2744" stroke="#2563eb" stroke-width="1"/>
  <rect x="280" y="250" width="140" height="100" rx="8" fill="#1a2744" stroke="#334155" stroke-width="1"/>
  <rect x="440" y="250" width="140" height="100" rx="8" fill="#1a2744" stroke="#334155" stroke-width="1"/>
  <rect x="600" y="250" width="140" height="100" rx="8" fill="#1a2744" stroke="#334155" stroke-width="1"/>
  <circle cx="190" cy="300" r="28" fill="#f5f5f0"/>
  <path d="M190 272 L200 292 L222 292 L205 304 L212 326 L190 314 L168 326 L175 304 L158 292 L180 292 Z" fill="#111" transform="translate(190 300) scale(0.35) translate(-190 -300)"/>
  <g transform="translate(960 140)">
    <circle r="36" stroke="#f59e0b" stroke-width="3" fill="none" stroke-dasharray="180 60"/>
    <path d="M20-8 L36 0 L20 8 Z" fill="#f59e0b"/>
  </g>
  <text x="48" y="56" fill="#f8fafc" font-family="system-ui,sans-serif" font-size="28" font-weight="800" letter-spacing="0.08em">AUTOMATED SYNC</text>
  <text x="48" y="92" fill="#94a3b8" font-family="system-ui,sans-serif" font-size="16" font-weight="500">Fresh odds from the scraper pipeline</text>
</svg>
